<svg width="1600" height="1200" viewBox="0 0 1600 1200" fill="none" xmlns="http://www.w3.org/2000/svg">
  <rect width="1600" height="1200" fill="#171922"/>
  <circle cx="1238" cy="226" r="250" fill="#E2B857" fill-opacity="0.22"/>
  <circle cx="322" cy="304" r="272" fill="#EB8445" fill-opacity="0.2"/>
  <circle cx="1034" cy="842" r="288" fill="#63B8B0" fill-opacity="0.14"/>
  <circle cx="1320" cy="848" r="178" fill="#F0A245" fill-opacity="0.16"/>
  <circle cx="684" cy="764" r="228" fill="#D57B73" fill-opacity="0.1"/>
  <rect x="116" y="122" width="1368" height="956" rx="48" stroke="#EAD9A7" stroke-opacity="0.2" stroke-width="2"/>
  <rect x="160" y="178" width="180" height="12" rx="6" fill="#EAD9A7"/>
  <rect x="356" y="178" width="102" height="12" rx="6" fill="#63B8B0"/>
  <rect x="160" y="220" width="484" height="480" rx="36" fill="#232736" fill-opacity="0.78" stroke="#EAD9A7" stroke-opacity="0.14"/>
  <rect x="690" y="246" width="624" height="356" rx="32" fill="#FFFDF9" fill-opacity="0.08" stroke="#EAD9A7" stroke-opacity="0.14"/>
  <rect x="772" y="330" width="312" height="18" rx="9" fill="#EAD9A7" fill-opacity="0.86"/>
  <rect x="772" y="380" width="246" height="12" rx="6" fill="#63B8B0" fill-opacity="0.86"/>
  <rect x="772" y="420" width="196" height="12" rx="6" fill="#F0A245" fill-opacity="0.82"/>
  <rect x="690" y="650" width="624" height="194" rx="32" fill="#FFFDF9" fill-opacity="0.06" stroke="#EAD9A7" stroke-opacity="0.14"/>
  <text x="160" y="340" fill="#FFFDF9" font-family="Arial, sans-serif" font-size="72" font-weight="700">AstraFlow Dimensions 2026</text>
  <text x="160" y="424" fill="#F6EFE7" font-family="Arial, sans-serif" font-size="32">Voices crossing dimensions, live in one editorial orbit.</text>
  <text x="160" y="958" fill="#EAD9A7" font-family="Arial, sans-serif" font-size="28">Fictional VTuber Event Portfolio Visual</text>
</svg>
